# xmcd CD database file
#
# Track frame offsets:
#	150
#	16954
#	45005
#	63492
#	83720
#	94223
#	116679
#	143800
#	167149
#	188312
#	210642
#	235870
#	263737
#
# Disc length: 3843 seconds
#
# Revision: 1
# Processed by: cddbd v1.5PL3 Copyright (c) Steve Scherf et al.
# Submitted via: CDex 1.51
#
DISCID=a00f010d
DTITLE=I've - regret
DYEAR=1900
DGENRE=
TTITLE0=FUCK ME
TTITLE1=Last regrets
TTITLE2=そよ風の行方
TTITLE3=I will ...
TTITLE4=新しい恋のかたち
TTITLE5=美しく生きたい
TTITLE6=Sweet 〜恋しくて〜
TTITLE7=季節の雫
TTITLE8=Dream to new world
TTITLE9=One small day
TTITLE10=Cross talk
TTITLE11=風の辿り着く場所
TTITLE12=Last regrets X'mas floor style
EXTD=
EXTT0=
EXTT1=
EXTT2=
EXTT3=
EXTT4=
EXTT5=
EXTT6=
EXTT7=
EXTT8=
EXTT9=
EXTT10=
EXTT11=
EXTT12=
PLAYORDER=
